<?xml version="1.0" encoding="UTF-8"?>
<svg version="1.1" xmlns="http://www.w3.org/2000/svg" width="1667" height="1667">
<path d="M0 0 C120.45 0 240.9 0 365 0 C365 182.49 365 364.98 365 553 C393.38 544.42 421.76 535.84 451 527 C467.2305426 522.09806663 483.46116578 517.19641563 499.69268799 512.29772949 C505.15063993 510.65046117 510.60851924 509.00295222 516.06640625 507.35546875 C524.05300744 504.94470021 532.03962543 502.53398733 540.02626801 500.12335587 C554.54368169 495.74151545 569.06094261 491.35916914 583.578125 486.9765625 C584.66892113 486.64726116 585.75971725 486.31795982 586.88356781 485.97867966 C592.38742774 484.31711222 597.89128522 482.6555367 603.3951416 480.99395752 C613.32549423 477.99605156 623.25586858 474.99821757 633.18624115 472.00037766 C638.70749498 470.333588 644.22874742 468.66679377 649.75 467 C651.95833333 466.33333331 654.16666666 465.66666664 656.375 465 C657.468125 464.67 658.56125 464.34 659.6875 464 C663 463 666.3125 462 669.625 461 C670.71815175 460.66999182 671.8113035 460.33998363 672.93758106 459.9999752 C675.14564395 459.3333904 677.35370707 458.66680638 679.56177044 458.00022316 C685.08674357 456.33231053 690.61171253 454.66438409 696.13667297 452.99642944 C706.02473464 450.01129341 715.9128233 447.02624694 725.80107212 444.04173088 C731.25672532 442.39507762 736.71235351 440.74834151 742.16796875 439.1015625 C743.25076803 438.77472095 744.33356731 438.44787941 745.4491787 438.11113358 C760.65183635 433.52205604 775.85330771 428.92906587 791.0539856 424.33343506 C799.60469523 421.74831214 808.1557157 419.1642181 816.70680428 416.58034897 C823.65340628 414.48120088 830.59959634 412.38069705 837.54546833 410.27913475 C841.84905613 408.97739683 846.15304718 407.67699615 850.45714378 406.37694168 C852.42968671 405.78084283 854.4020681 405.1842091 856.37426186 404.58695602 C869.54783672 400.59789897 882.75524014 396.7460278 896 393 C900.23411527 403.43670357 900.23411527 403.43670357 901.94433594 408.66601562 C902.27344971 409.66715393 902.60256348 410.66829224 902.94165039 411.69976807 C903.28574951 412.7579071 903.62984863 413.81604614 903.984375 414.90625 C904.35651123 416.04221619 904.72864746 417.17818237 905.11206055 418.34857178 C906.11831076 421.42338135 907.12149086 424.49916962 908.12303162 427.57551575 C908.75695574 429.5213507 909.39222685 431.46674075 910.0279541 433.4119873 C915.991248 451.65903164 921.87401513 469.93086683 927.69641113 488.22338867 C934.08664633 508.28796403 940.66370103 528.28944019 947.2542572 548.28883362 C953.90075228 568.45915505 960.48441915 588.64591576 966.91714478 608.88568115 C973.94301613 630.97748954 981.19527231 652.99441516 988.45810986 675.00920296 C989.42478265 677.93973213 990.39064974 680.87052661 991.35650063 683.80132675 C992.01507524 685.79823473 992.67509949 687.79465898 993.33525085 689.79104614 C995.52600555 696.43598034 997.69002006 703.08941485 999.80981445 709.75732422 C1000.02919017 710.43699312 1000.24856588 711.11666203 1000.47458935 711.81692696 C1001.37372048 714.66830893 1002 716.98933678 1002 720 C991.51676868 723.99691734 980.98485566 727.77619233 970.34765625 731.34375 C968.8905999 731.83475119 967.43363201 732.32601493 965.97674561 732.81752014 C962.91611882 733.84957518 959.8549719 734.88006493 956.79336548 735.90921021 C951.99433487 737.52246951 947.19660328 739.13956624 942.39916992 740.75756836 C941.60227407 741.02632876 940.80537821 741.29508917 939.98433399 741.57199383 C938.38362103 742.11186434 936.78291331 742.65175043 935.18221092 743.1916523 C932.80704448 743.99266415 930.43176955 744.79335359 928.05647278 745.59397888 C916.29955445 749.55743647 904.55107248 753.54500129 892.8125 757.5625 C892.02714874 757.83118896 891.24179749 758.09987793 890.43264771 758.37670898 C887.32031747 759.44156667 884.20805141 760.50661123 881.09596252 761.57217407 C872.33620086 764.57103848 863.57199561 767.55685744 854.80795288 770.54318237 C839.70346404 775.69007827 824.60075286 780.84215365 809.5 786 C794.40728308 791.15510157 779.31237077 796.30373283 764.21621704 801.44876099 C754.39717886 804.79532053 744.57849024 808.14289003 734.76171875 811.49609375 C733.92896423 811.78053848 733.09620972 812.06498322 732.23822021 812.35804749 C728.88155355 813.50465037 725.52491171 814.65132566 722.168396 815.79837036 C712.28086581 819.1772404 702.39078069 822.54839049 692.49609375 825.90625 C688.53893819 827.24963414 684.58191181 828.59339805 680.625 829.9375 C679.64047852 830.27190094 678.65595703 830.60630188 677.64160156 830.95083618 C662.57100024 836.07273652 647.536925 841.29292073 632.51715088 846.56173706 C618.51751487 851.46858303 604.46794189 856.20691718 590.38388062 860.86529541 C576.14752899 865.57702666 561.97950391 870.46477248 547.8324585 875.43768311 C532.24144603 880.91504584 516.58848869 886.18869885 500.88867188 891.34570312 C491.82314249 894.331977 482.86406697 897.44998802 474 901 C474.70382812 901.99515625 475.40765625 902.9903125 476.1328125 904.015625 C481.77417458 911.99722246 487.39910711 919.98994526 493 928 C498.82117705 936.32405979 504.66854222 944.6291838 510.53222656 952.92333984 C513.02320986 956.44767516 515.51144903 959.97394701 518 963.5 C518.99998722 964.91667568 519.99998722 966.33334236 521 967.75 C547 1004.58333333 573 1041.41666667 599 1078.25 C599.49483887 1078.9510083 599.98967773 1079.6520166 600.49951172 1080.37426758 C601.50119043 1081.79333958 602.5028179 1083.21244775 603.50439453 1084.6315918 C605.97829495 1088.13675274 608.45303366 1091.64131515 610.9296875 1095.14453125 C616.90402057 1103.59757697 622.85199034 1112.06859593 628.78417969 1120.55126953 C634.01199197 1128.02389806 639.2676338 1135.47659624 644.53222656 1142.92333984 C647.02320986 1146.44767516 649.51144903 1149.97394701 652 1153.5 C652.99998722 1154.91667568 653.99998722 1156.33334236 655 1157.75 C677 1188.91666667 699 1220.08333333 721 1251.25 C721.49483887 1251.9510083 721.98967773 1252.6520166 722.49951172 1253.37426758 C723.50119043 1254.79333958 724.5028179 1256.21244775 725.50439453 1257.6315918 C727.97829495 1261.13675274 730.45303366 1264.64131515 732.9296875 1268.14453125 C738.90402057 1276.59757697 744.85199034 1285.06859593 750.78417969 1293.55126953 C756.01199197 1301.02389806 761.2676338 1308.47659624 766.53222656 1315.92333984 C769.52169738 1320.15295375 772.50755792 1324.38511762 775.49389648 1328.61694336 C778.029308 1332.20943218 780.56609164 1335.80093795 783.10546875 1339.390625 C789.11870933 1347.89422625 795.09265368 1356.42241381 801 1365 C799.65008634 1368.15078009 798.33725021 1369.78663118 795.53515625 1371.7421875 C794.82746094 1372.24363281 794.11976562 1372.74507812 793.390625 1373.26171875 C792.62234375 1373.79410156 791.8540625 1374.32648438 791.0625 1374.875 C789.41725981 1376.0380603 787.77275175 1377.20215681 786.12890625 1378.3671875 C785.2795752 1378.9662793 784.43024414 1379.56537109 783.55517578 1380.18261719 C779.49746599 1383.06868557 775.49993219 1386.03464733 771.5 1389 C763.12168141 1395.1916648 754.68890361 1401.30475947 746.23388672 1407.39111328 C742.48640216 1410.09012128 738.74344155 1412.79538884 735 1415.5 C733.50002146 1416.58336304 732.00002146 1417.66669638 730.5 1418.75 C729.7575 1419.28625 729.015 1419.8225 728.25 1420.375 C721.5 1425.25 721.5 1425.25 719.25024414 1426.87475586 C717.7493445 1427.95878416 716.24853078 1429.04293142 714.74780273 1430.12719727 C711.01226033 1432.82587655 707.27527746 1435.52251312 703.53515625 1438.21484375 C695.82537027 1443.76804624 688.14242369 1449.35437205 680.5 1455 C672.12051542 1461.19011119 663.68892637 1467.30474309 655.23388672 1473.39111328 C651.48640216 1476.09012128 647.74344155 1478.79538884 644 1481.5 C642.50002146 1482.58336304 641.00002146 1483.66669638 639.5 1484.75 C638.7575 1485.28625 638.015 1485.8225 637.25 1486.375 C630.5 1491.25 630.5 1491.25 628.25024414 1492.87475586 C626.7493445 1493.95878416 625.24853078 1495.04293142 623.74780273 1496.12719727 C620.01226033 1498.82587655 616.27527746 1501.52251312 612.53515625 1504.21484375 C604.82537027 1509.76804624 597.14242369 1515.35437205 589.5 1521 C581.12051542 1527.19011119 572.68892637 1533.30474309 564.23388672 1539.39111328 C560.48640222 1542.09012124 556.74341934 1544.79535819 553 1547.5 C548.33686532 1550.86847492 543.67311945 1554.2360966 539.0078125 1557.6015625 C538.19054688 1558.19130859 537.37328125 1558.78105469 536.53125 1559.38867188 C534.96636346 1560.51787978 533.40127044 1561.64680161 531.8359375 1562.77539062 C531.12953125 1563.28521484 530.423125 1563.79503906 529.6953125 1564.3203125 C528.7674292 1564.98957764 528.7674292 1564.98957764 527.82080078 1565.67236328 C525.92870097 1567.01120846 525.92870097 1567.01120846 524.01904297 1568.72998047 C522 1570 522 1570 519.95800781 1569.93457031 C517.41501213 1568.72078135 516.34575727 1567.31188697 514.671875 1565.046875 C514.04522949 1564.21075684 513.41858398 1563.37463867 512.77294922 1562.51318359 C512.10537598 1561.60133301 511.43780273 1560.68948242 510.75 1559.75 C509.31022796 1557.82006468 507.87011428 1555.8903842 506.4296875 1553.9609375 C505.69459961 1552.96932617 504.95951172 1551.97771484 504.20214844 1550.95605469 C501.45756674 1547.27186454 498.66711101 1543.62434945 495.87158203 1539.97875977 C489.52988475 1531.70849791 483.30273455 1523.36261057 477.14794922 1514.95263672 C472.62875709 1508.79990881 467.96136996 1502.77461089 463.24951172 1496.76879883 C458.45607521 1490.63820357 453.84149945 1484.38803384 449.25 1478.10546875 C445.25872978 1472.66201762 441.16634224 1467.31038598 437 1462 C431.59130262 1455.10445859 426.35239564 1448.10140153 421.17529297 1441.03076172 C415.80019077 1433.69944036 410.28674821 1426.48036926 404.74658203 1419.2734375 C395.76542295 1407.58311693 386.85505258 1395.85022706 378.14868164 1383.95361328 C373.62922227 1377.80057572 368.96162196 1371.77493209 364.24951172 1365.76879883 C359.45607521 1359.63820357 354.84149945 1353.38803384 350.25 1347.10546875 C346.25872978 1341.66201762 342.16634224 1336.31038598 338 1331 C332.59130262 1324.10445859 327.35239564 1317.10140153 322.17529297 1310.03076172 C316.80019077 1302.69944036 311.28674821 1295.48036926 305.74658203 1288.2734375 C296.76542295 1276.58311693 287.85505258 1264.85022706 279.14868164 1252.95361328 C274.62922227 1246.80057572 269.96162196 1240.77493209 265.24951172 1234.76879883 C260.45607521 1228.63820357 255.84149945 1222.38803384 251.25 1216.10546875 C247.25872978 1210.66201762 243.16634224 1205.31038598 239 1200 C233.59130262 1193.10445859 228.35239564 1186.10140153 223.17529297 1179.03076172 C217.80019077 1171.69944036 212.28674821 1164.48036926 206.74658203 1157.2734375 C196.00796101 1143.2955176 185.40159261 1129.23077739 175 1115 C170.84475388 1116.38508204 169.28064764 1119.3246567 166.8125 1122.75 C165.73413581 1124.21822917 164.65465093 1125.68563569 163.57421875 1127.15234375 C162.99720215 1127.93851074 162.42018555 1128.72467773 161.82568359 1129.53466797 C158.64289037 1133.832588 155.37834345 1138.06790041 152.125 1142.3125 C146.97088214 1149.05381917 141.8857008 1155.83897654 136.875 1162.6875 C131.78985022 1169.63624569 126.56425831 1176.45693769 121.24951172 1183.23120117 C117.06528749 1188.58264061 113.00810819 1194.01569125 109 1199.5 C104.43317484 1205.74880318 99.77750687 1211.91074606 95 1218 C89.5184888 1224.98715905 84.21166519 1232.08619584 78.96435547 1239.25048828 C74.54653864 1245.27704088 70.02715401 1251.21076856 65.45214844 1257.11914062 C57.13965785 1267.88568862 48.90809498 1278.71075534 40.875 1289.6875 C35.78975737 1296.63618043 30.56426095 1303.45693433 25.24951172 1310.23120117 C21.06528749 1315.58264061 17.00810819 1321.01569125 13 1326.5 C8.43317338 1332.74880518 3.77745029 1338.91070065 -1 1345 C-5.79439536 1351.11236855 -10.47319207 1357.29464221 -15.0625 1363.5625 C-21.02103662 1371.70038501 -27.10653674 1379.73038475 -33.25341797 1387.7265625 C-42.23457705 1399.41688307 -51.14494742 1411.14977294 -59.85131836 1423.04638672 C-64.37077773 1429.19942428 -69.03837804 1435.22506791 -73.75048828 1441.23120117 C-77.93471251 1446.58264061 -81.99189181 1452.01569125 -86 1457.5 C-90.56682516 1463.74880318 -95.22249313 1469.91074606 -100 1476 C-105.4815112 1482.98715905 -110.78833481 1490.08619584 -116.03564453 1497.25048828 C-120.45346136 1503.27704088 -124.97284599 1509.21076856 -129.54785156 1515.11914062 C-132.62930861 1519.1103217 -135.68985132 1523.11747274 -138.75 1527.125 C-139.42949707 1528.01268066 -140.10899414 1528.90036133 -140.80908203 1529.81494141 C-144.26671797 1534.34803206 -147.67479602 1538.90776308 -151 1543.5390625 C-151.63196289 1544.41546387 -152.26392578 1545.29186523 -152.91503906 1546.19482422 C-154.11389127 1547.86422113 -155.30377544 1549.54010495 -156.48339844 1551.22314453 C-157.28825684 1552.34245361 -157.28825684 1552.34245361 -158.109375 1553.484375 C-158.57311523 1554.14147461 -159.03685547 1554.79857422 -159.51464844 1555.47558594 C-161.35010581 1557.35931307 -162.37376293 1557.85395984 -165 1558 C-166.91601562 1556.97119141 -166.91601562 1556.97119141 -168.90625 1555.3515625 C-169.64335205 1554.7632666 -170.3804541 1554.1749707 -171.13989258 1553.56884766 C-171.91872803 1552.92737793 -172.69756348 1552.2859082 -173.5 1551.625 C-175.13871979 1550.31174704 -176.77804225 1548.99924576 -178.41796875 1547.6875 C-179.21122559 1547.04683594 -180.00448242 1546.40617187 -180.82177734 1545.74609375 C-183.44220425 1543.64552289 -186.11419104 1541.62432589 -188.8125 1539.625 C-194.21544711 1535.59883693 -199.57949191 1531.523267 -204.9375 1527.4375 C-206.28871948 1526.40713623 -206.28871948 1526.40713623 -207.66723633 1525.35595703 C-209.5215703 1523.94168166 -211.37581742 1522.52729242 -213.22998047 1521.11279297 C-217.65191887 1517.74002239 -222.07603276 1514.37010868 -226.5 1511 C-228.25001122 1509.66668139 -230.0000112 1508.33334803 -231.75 1507 C-232.61625 1506.34 -233.4825 1505.68 -234.375 1505 C-286 1465.66666667 -337.625 1426.33333333 -389.25 1387 C-390.11713623 1386.33935547 -390.98427246 1385.67871094 -391.87768555 1384.99804688 C-393.61885341 1383.67138103 -395.35990258 1382.34455938 -397.10083008 1381.01757812 C-401.60997581 1377.58091211 -406.12146453 1374.14738748 -410.63671875 1370.71875 C-411.56613281 1370.01234375 -412.49554688 1369.3059375 -413.453125 1368.578125 C-415.2088579 1367.243768 -416.96530711 1365.9103527 -418.72265625 1364.578125 C-424.55585304 1360.14265907 -430.29648819 1355.60089836 -436 1351 C-434.79541305 1347.75489031 -433.49876111 1345.03216261 -431.453125 1342.2421875 C-430.94523438 1341.54416016 -430.43734375 1340.84613281 -429.9140625 1340.12695312 C-429.09035156 1339.01223633 -429.09035156 1339.01223633 -428.25 1337.875 C-427.67507813 1337.08802734 -427.10015625 1336.30105469 -426.5078125 1335.49023438 C-424.67792059 1332.98898602 -422.84000369 1330.49381704 -421 1328 C-419.82812226 1326.40885619 -418.65624722 1324.81771038 -417.484375 1323.2265625 C-415.73528935 1320.85308368 -413.98538823 1318.48022282 -412.23339844 1316.10888672 C-408.2872951 1310.76406773 -404.38129329 1305.39202932 -400.5 1300 C-393.15996467 1289.80643537 -385.69545394 1279.70598373 -378.22949219 1269.60449219 C-371.40034581 1260.36195339 -364.6079307 1251.0961172 -357.89428711 1241.76928711 C-353.38568587 1235.5137479 -348.81319395 1229.30681654 -344.23046875 1223.10546875 C-340.28584596 1217.76142324 -336.38030944 1212.39089219 -332.5 1207 C-327.45992181 1199.99784758 -322.35786615 1193.04386744 -317.23046875 1186.10546875 C-313.28584596 1180.76142324 -309.38030944 1175.39089219 -305.5 1170 C-300.45992181 1162.99784758 -295.35786615 1156.04386744 -290.23046875 1149.10546875 C-286.28584596 1143.76142324 -282.38030944 1138.39089219 -278.5 1133 C-273.45992181 1125.99784758 -268.35786615 1119.04386744 -263.23046875 1112.10546875 C-259.28584596 1106.76142324 -255.38030944 1101.39089219 -251.5 1096 C-246.45992181 1088.99784758 -241.35786615 1082.04386744 -236.23046875 1075.10546875 C-232.28584489 1069.76142179 -228.38041885 1064.39081451 -224.5 1059 C-217.15996467 1048.80643537 -209.69545394 1038.70598373 -202.22949219 1028.60449219 C-195.40034581 1019.36195339 -188.6079307 1010.0961172 -181.89428711 1000.76928711 C-177.38568587 994.5137479 -172.81319395 988.30681654 -168.23046875 982.10546875 C-164.28584596 976.76142324 -160.38030944 971.39089219 -156.5 966 C-151.45992181 958.99784758 -146.35786615 952.04386744 -141.23046875 945.10546875 C-136.75142484 939.03740704 -132.32891191 932.93043126 -127.9230957 926.80908203 C-121.68541979 918.15462974 -115.34323373 909.57722274 -109 901 C-116.32828432 898.00416569 -123.72450667 895.24376051 -131.17578125 892.5703125 C-132.34943741 892.1475856 -133.52309357 891.7248587 -134.73231506 891.2893219 C-137.26639351 890.37685742 -139.80068704 889.46502108 -142.33538818 888.55429077 C-146.3858523 887.09892119 -150.43542208 885.64107425 -154.48486328 884.18286133 C-159.4369148 882.39979188 -164.38916568 880.6172783 -169.34169006 878.83552265 C-182.07637018 874.25395412 -194.80775872 869.66326854 -207.53866577 865.07122803 C-210.74995148 863.91291858 -213.96130915 862.75480879 -217.17268467 861.59674835 C-233.88930586 855.56842478 -250.60214385 849.52971469 -267.31188965 843.48236084 C-284.07891572 837.41461525 -300.85105989 831.36110053 -317.625 825.3125 C-318.26398476 825.08208134 -318.90296951 824.85166267 -319.56131744 824.61426163 C-329.37407212 821.07578746 -339.18701665 817.53783993 -349 814 C-359.4584379 810.22945664 -369.91681155 806.45873519 -380.375 802.6875 C-381.01511269 802.4566785 -381.65522537 802.22585701 -382.31473541 801.98804092 C-400.31745415 795.49627003 -418.31668388 788.9949301 -436.31188965 782.48236084 C-452.43206241 776.64870216 -468.55687105 770.82794207 -484.68364716 765.01256561 C-486.6246586 764.31262311 -488.56565728 763.61264524 -490.50665283 762.91265869 C-503.55513148 758.20699857 -516.60406114 753.50259346 -529.65411377 748.80130005 C-555.18397214 739.60408701 -580.71069044 730.39817416 -606.21832275 721.13946533 C-608.63193893 720.2635923 -611.04579325 719.38837524 -613.4598999 718.51385498 C-616.7839001 717.30943428 -620.10692766 716.10236894 -623.4296875 714.89453125 C-624.40276855 714.54245102 -625.37584961 714.19037079 -626.37841797 713.82762146 C-631.3240391 712.02624338 -636.18650612 710.13027111 -641 708 C-640.42987207 703.31220706 -639.51793912 699.05150648 -638.02905273 694.57299805 C-637.61964447 693.33142944 -637.21023621 692.08986084 -636.78842163 690.81066895 C-636.33687544 689.46099777 -635.88526422 688.11134834 -635.43359375 686.76171875 C-634.96301997 685.34072496 -634.49303205 683.91953705 -634.02359009 682.49816895 C-633.02297786 679.47170554 -632.01898325 676.44639515 -631.01223755 673.42196655 C-628.61389228 666.21572978 -626.23371123 659.00348644 -623.85263634 651.7915287 C-623.31958432 650.17722032 -622.78632056 648.56298183 -622.25284767 646.94881248 C-617.77134983 633.38827245 -613.38239605 619.80043718 -609.0625 606.1875 C-602.26016771 584.77554384 -595.24358015 563.43637663 -588.20869827 542.10003281 C-581.41093433 521.48156278 -574.66874049 500.84910772 -568.09713745 480.15716553 C-560.77200003 457.1080104 -553.18703628 434.14415406 -545.60451603 411.1786747 C-544.57440833 408.05823144 -543.54525546 404.93747365 -542.51617241 401.81669235 C-541.79993529 399.64634606 -541.0820274 397.47655733 -540.36402893 395.30679321 C-539.93019067 393.99182623 -539.49642483 392.67683536 -539.06274414 391.36181641 C-538.68686661 390.22467194 -538.31098907 389.08752747 -537.92372131 387.91592407 C-537.19579889 385.6180811 -536.5434227 383.34660108 -536 381 C-528.05300165 382.57875997 -520.46076013 385.00219115 -512.76953125 387.5234375 C-511.36122843 387.98161839 -509.9527981 388.43940751 -508.54425049 388.89683533 C-505.5368735 389.87430725 -502.53033507 390.85430069 -499.52444458 391.83633423 C-494.74806978 393.39670553 -489.96980285 394.95122274 -485.19116211 396.50463867 C-480.27193467 398.10397485 -475.35277625 399.70351899 -470.43421936 401.30491638 C-455.62060132 406.12765429 -440.79697726 410.91901755 -425.96916962 415.69792557 C-424.05208589 416.31585677 -422.13507033 416.93399899 -420.21807861 417.55221558 C-401.07149659 423.7268558 -381.91963746 429.88501579 -362.76559448 436.03646851 C-349.10939691 440.42254345 -335.45637554 444.8182843 -321.80859375 449.23046875 C-321.12423059 449.4517148 -320.43986744 449.67296085 -319.73476601 449.90091133 C-314.16623061 451.70123397 -308.59781301 453.50192089 -303.02942276 455.30269241 C-283.84106425 461.50788054 -264.64335125 467.68249931 -245.43145752 473.81451416 C-225.3262918 480.23399447 -205.25021479 486.74230387 -185.17485428 493.25421524 C-165.73244844 499.56065337 -146.28481224 505.84884546 -126.8125 512.0625 C-95.84386664 521.94525593 -64.92542429 531.98304341 -34 542 C-22.78 545.63 -11.56 549.26 0 553 C0 370.51 0 188.02 0 0 Z " fill="#ED225D" transform="translate(655,47)"/>
</svg>
