<?xml version="1.0" encoding="UTF-8"?>
<svg version="1.1" xmlns="http://www.w3.org/2000/svg" width="1080" height="1080">
<path d="M0 0 C356.4 0 712.8 0 1080 0 C1080 356.4 1080 712.8 1080 1080 C723.6 1080 367.2 1080 0 1080 C0 723.6 0 367.2 0 0 Z " fill="#FEFEFE" transform="translate(0,0)"/>
<path d="M0 0 C11.88 0 23.76 0 36 0 C36 18.15 36 36.3 36 55 C49.62812922 50.69737183 49.62812922 50.69737183 63.25 46.375 C83.71601942 40 83.71601942 40 90 40 C91.4279783 44.2345633 92.85204104 48.47041664 94.27246094 52.70751953 C94.75640691 54.14928877 95.24142839 55.59069746 95.72753906 57.03173828 C96.42534712 59.10095279 97.11929998 61.17142543 97.8125 63.2421875 C98.23144531 64.4885498 98.65039062 65.73491211 99.08203125 67.01904297 C100 70 100 70 100 72 C94.04124676 74.08219425 88.08214291 76.1633827 82.12280273 78.24389648 C80.0986347 78.95070011 78.07454486 79.65772774 76.05053711 80.36499023 C73.12895271 81.38585413 70.20708118 82.4058925 67.28515625 83.42578125 C66.39103531 83.73840408 65.49691437 84.05102692 64.57569885 84.37312317 C59.0655274 86.29534351 53.54164185 88.17046425 48 90 C52.17231831 96.84943723 56.6553048 103.35131095 61.43408203 109.78369141 C67.80810888 118.39025645 73.88813844 127.20638956 80 136 C75.92821526 140.38686332 71.42382345 143.68215489 66.5 147.0625 C65.00939009 148.09356955 63.51978126 149.12608807 62.03125 150.16015625 C61.33386719 150.64371582 60.63648438 151.12727539 59.91796875 151.62548828 C58.26317106 152.81139854 56.67121444 154.08410327 55.09375 155.37109375 C53 157 53 157 51 157 C49.70996094 155.54150391 49.70996094 155.54150391 48.234375 153.4765625 C47.68064209 152.71118164 47.12690918 151.94580078 46.55639648 151.15722656 C45.96028564 150.3215918 45.3641748 149.48595703 44.75 148.625 C39.21581676 140.97976504 33.54614688 133.46874713 27.70800781 126.05322266 C24.35116352 121.77915892 21.12540155 117.44656757 18 113 C13.99915188 114.33361604 12.63511181 116.92855808 10.3125 120.25 C9.34057837 121.60823057 8.36648446 122.96490841 7.390625 124.3203125 C6.85630859 125.06313477 6.32199219 125.80595703 5.77148438 126.57128906 C2.43795751 131.14156542 -1.00361666 135.62993367 -4.4375 140.125 C-5.12352295 141.02508789 -5.8095459 141.92517578 -6.51635742 142.85253906 C-9.6350512 146.93695488 -12.76222163 151.00867218 -16 155 C-19.41780429 154.3895068 -21.42061948 153.13716047 -24.1171875 150.98046875 C-24.88933594 150.37009766 -25.66148437 149.75972656 -26.45703125 149.13085938 C-27.25496094 148.48955078 -28.05289063 147.84824219 -28.875 147.1875 C-33.80601861 143.25796886 -38.68170123 139.39447687 -44 136 C-42.73424249 133.35601338 -41.36324713 130.95132423 -39.671875 128.55859375 C-39.20837646 127.90141357 -38.74487793 127.2442334 -38.26733398 126.56713867 C-37.76661377 125.86435791 -37.26589355 125.16157715 -36.75 124.4375 C-36.22929932 123.70313721 -35.70859863 122.96877441 -35.17211914 122.2121582 C-20.9933258 102.29398036 -20.9933258 102.29398036 -14.31665039 93.87817383 C-12.80865782 92.10933942 -12.80865782 92.10933942 -13 90 C-13.80353661 89.70931892 -13.80353661 89.70931892 -14.62330627 89.4127655 C-20.22120062 87.38725869 -25.81804738 85.35887733 -31.41430664 83.32885742 C-33.50030464 82.57259215 -35.58656465 81.81704918 -37.6730957 81.06225586 C-40.67989919 79.97441401 -43.68573693 78.88393975 -46.69140625 77.79296875 C-47.61772354 77.45847214 -48.54404083 77.12397552 -49.49842834 76.77934265 C-54.40477113 74.99540933 -59.22519623 73.11165768 -64 71 C-63.34880236 64.08728661 -61.18610688 57.71006063 -59.0625 51.125 C-58.70220703 49.97257812 -58.34191406 48.82015625 -57.97070312 47.6328125 C-57.62072266 46.5396875 -57.27074219 45.4465625 -56.91015625 44.3203125 C-56.43267944 42.82395264 -56.43267944 42.82395264 -55.94555664 41.29736328 C-55 39 -55 39 -53 38 C-50.43120717 38.60815943 -47.95693688 39.28876855 -45.4375 40.0625 C-44.68243164 40.28929443 -43.92736328 40.51608887 -43.14941406 40.74975586 C-37.07669054 42.60265379 -31.09385193 44.67760221 -25.12158203 46.8293457 C-19.73839865 48.76410373 -14.31371036 50.50258721 -8.83203125 52.140625 C-5.87090713 53.03917301 -2.93565668 54.02144777 0 55 C0 36.85 0 18.7 0 0 Z " fill="#ED235E" transform="translate(523,453)"/>
<path d="M0 0 C0.76194672 -0.00043808 1.52389343 -0.00087616 2.30892944 -0.00132751 C4.79802133 0.00074294 7.28641814 0.02399001 9.77539062 0.04760742 C11.51273226 0.05320961 13.25007867 0.05747676 14.98742676 0.06047058 C19.53801792 0.07187038 24.08831728 0.10129513 28.63879395 0.13458252 C34.11044282 0.17081465 39.5821898 0.18446775 45.05392456 0.20194244 C53.34669891 0.23093583 61.63883425 0.28845658 69.93164062 0.34057617 C69.93164062 13.87057617 69.93164062 27.40057617 69.93164062 41.34057617 C42.70664062 41.83557617 42.70664062 41.83557617 14.93164062 42.34057617 C14.60164062 43.33057617 14.27164063 44.32057617 13.93164062 45.34057617 C14.59808594 45.58549805 15.26453125 45.83041992 15.95117188 46.08276367 C31.58679068 52.6812817 46.95272748 62.28907594 53.93164062 78.34057617 C57.72785858 88.18262272 56.91966972 98.93835792 53.19335938 108.69213867 C51.2652655 112.73934502 48.91417958 116.01139831 45.93164062 119.34057617 C45.43019531 119.94514648 44.92875 120.5497168 44.41210938 121.17260742 C37.94397301 128.39614657 29.45854275 132.24504112 19.93164062 133.34057617 C17.43412045 133.42369992 14.93469034 133.45843241 12.43579102 133.45410156 C11.36624176 133.4543206 11.36624176 133.4543206 10.27508545 133.45454407 C7.94312382 133.4538533 5.61124437 133.44610047 3.27929688 133.43823242 C1.65262394 133.43636527 0.02595044 133.43494277 -1.60072327 133.4339447 C-5.86351091 133.43014294 -10.12626401 133.42033285 -14.38903809 133.40924072 C-19.51363664 133.3971685 -24.6382468 133.39261321 -29.76285553 133.38678741 C-37.53138078 133.37711968 -45.29983034 133.3579468 -53.06835938 133.34057617 C-53.06835938 119.81057617 -53.06835938 106.28057617 -53.06835938 92.34057617 C-25.84335937 91.84557617 -25.84335937 91.84557617 1.93164062 91.34057617 C2.42664063 89.36057617 2.42664063 89.36057617 2.93164062 87.34057617 C1.701875 86.98672852 1.701875 86.98672852 0.44726562 86.62573242 C-13.65035235 81.47226985 -27.34826236 71.95609252 -34.91210938 58.89526367 C-39.37026066 49.04515914 -40.2763803 35.08178035 -36.56835938 24.77807617 C-30.9621022 13.52635723 -22.04491646 5.30998034 -10.25273132 0.9795742 C-6.85237296 -0.0151384 -3.50854444 -0.05401485 0 0 Z " fill="#010101" transform="translate(664.068359375,473.659423828125)"/>
<path d="M0 0 C13.53 0 27.06 0 41 0 C41.02578125 5.465625 41.0515625 10.93125 41.078125 16.5625 C41.1033061 20.03520248 41.12964863 23.50781895 41.16015625 26.98046875 C41.20841727 32.48649366 41.25248966 37.99231936 41.27099609 43.49853516 C41.28619472 47.94026468 41.32069673 52.38147137 41.36830902 56.82296753 C41.38308987 58.51328982 41.39103912 60.20368678 41.39188385 61.89407349 C41.07417579 75.22113287 41.07417579 75.22113287 47.44683838 86.49707031 C52.60828304 91.0761867 56.63300283 92.47201319 63.40234375 92.3125 C68.9492532 91.64520262 73.18818054 89.22226423 76.875 85.0625 C80.4948349 79.84567911 81.29954599 75.6367859 81.31884766 69.36401367 C81.32889328 68.61225861 81.3389389 67.86050354 81.34928894 67.08596802 C81.38005859 64.61330902 81.39713858 62.140758 81.4140625 59.66796875 C81.43277917 57.94874649 81.45235296 56.22953337 81.4727478 54.5103302 C81.52402234 49.99440911 81.56367307 45.47845824 81.60089111 40.96240234 C81.64801009 35.5390674 81.70958788 30.11587961 81.76873779 24.6926651 C81.85689304 16.46183629 81.92669807 8.23103487 82 0 C95.53 0 109.06 0 123 0 C123.16043524 19.86277369 123.16043524 19.86277369 123.1953125 28.41601562 C123.21910168 34.2222378 123.2470549 40.02820453 123.30175781 45.83422852 C123.34564318 50.52215283 123.3692259 55.2098027 123.37950897 59.89791679 C123.38682457 61.67464955 123.40110691 63.45136956 123.42292023 65.22798347 C123.65214837 84.69554581 120.05630388 101.19300628 106.22265625 115.90625 C94.01992152 127.40126901 78.55158074 134.63501573 61.6875 134.4375 C60.77178223 134.42992676 59.85606445 134.42235352 58.91259766 134.41455078 C42.06480569 134.00739829 28.77328405 126.71259702 17 115 C16.37351562 114.40832031 15.74703125 113.81664062 15.1015625 113.20703125 C11.0191015 109.02297055 8.33998634 104.28407993 5.6875 99.125 C5.34960449 98.47716553 5.01170898 97.82933105 4.66357422 97.16186523 C-0.79784355 86.0247209 -0.26940059 74.40436031 -0.1953125 62.3046875 C-0.19157617 60.50294147 -0.18873213 58.70119338 -0.18673706 56.89944458 C-0.17914942 52.1878485 -0.15954347 47.47637833 -0.1373291 42.76483154 C-0.11314103 37.09536338 -0.10406648 31.4258528 -0.09242249 25.75634766 C-0.07311568 17.17081122 -0.03475931 8.58555035 0 0 Z " fill="#010101" transform="translate(334,473)"/>
<path d="M0 0 C13.53 0 27.06 0 41 0 C41 30.69 41 61.38 41 93 C68.06 93 95.12 93 123 93 C123 106.53 123 120.06 123 134 C82.41 134 41.82 134 0 134 C0 89.78 0 45.56 0 0 Z " fill="#000000" transform="translate(200,473)"/>
<path d="M0 0 C6.89778236 -0.51078383 13.79066766 -0.85861693 20.703125 -1.09863281 C23.0480749 -1.19870639 25.39179164 -1.33484991 27.73242188 -1.50878906 C43.33461429 -2.63841969 43.33461429 -2.63841969 50 0 C55.42632316 4.7063044 58.23745537 11.14270228 60.96765137 17.65393066 C62.56970702 21.29469069 64.33237876 25.16618938 68 27 C69.04630592 24.49005253 69.99132116 22.03056485 70.73461914 19.4128418 C72.80815824 12.38405646 75.7640589 5.23159038 81.99212646 0.93780518 C96.0139887 -5.61130001 118.0316253 -1.25475791 133 0 C131.28374482 4.51088669 128.96649712 8.36360779 126.3125 12.375 C125.83264648 13.10831543 125.35279297 13.84163086 124.85839844 14.59716797 C123.80462747 16.20718853 122.7490424 17.81602283 121.69189453 19.42382812 C119.32650603 23.02549904 116.97610621 26.63687212 114.62451172 30.24755859 C112.73172478 33.1530531 110.83687383 36.05719117 108.94140625 38.9609375 C106.21880143 43.13199816 103.49751817 47.30391641 100.77734375 51.4765625 C100.0925293 52.5269873 99.40771484 53.57741211 98.70214844 54.65966797 C97.38370287 56.68207272 96.06534021 58.70453152 94.74707031 60.72705078 C94.1537793 61.63696777 93.56048828 62.54688477 92.94921875 63.484375 C92.42674561 64.28584961 91.90427246 65.08732422 91.3659668 65.91308594 C90.2524542 67.61430232 89.12783625 69.30824563 88 71 C87.67048702 73.85049895 87.67048702 73.85049895 87.68115234 77.1237793 C87.66128265 78.38486008 87.64141296 79.64594086 87.62094116 80.94523621 C87.60906478 82.32156194 87.59740192 83.69788953 87.5859375 85.07421875 C87.56722711 86.48241819 87.54765379 87.8906064 87.5272522 89.29878235 C87.47591107 93.00258773 87.43629615 96.70642946 87.39910889 100.41040039 C87.35908153 104.19100923 87.3080904 107.971469 87.2578125 111.75195312 C87.15999276 119.16791236 87.08049627 126.58375131 87 134 C73.47 134 59.94 134 46 134 C46.14824219 129.71644531 46.29648437 125.43289063 46.44921875 121.01953125 C48.21951288 79.18792263 48.21951288 79.18792263 28.51513672 43.83837891 C24.37574852 39.16700177 21.22285578 33.91325499 17.9375 28.625 C16.7408192 26.77530892 15.53920867 24.92879526 14.33203125 23.0859375 C13.77209473 22.22838867 13.2121582 21.37083984 12.63525391 20.48730469 C9.75551576 16.10707592 6.83423768 11.75375698 3.87866211 7.42431641 C2.20498222 4.94751807 0.95186445 2.85559336 0 0 Z " fill="#020202" transform="translate(745,473)"/>
</svg>
