<svg xmlns="http://www.w3.org/2000/svg" viewBox="0 0 980 340" role="img" aria-labelledby="title desc">
  <title id="title">LUXSY</title>
  <desc id="desc">LUXSY wordmark with a strong architectural base line.</desc>
  <g fill="#343434">
    <path d="M102 276 176 36h98L215 235h628l94 41H102Z" opacity="0.98"/>
    <path d="M252 238 292 100h83l-29 101c-4 15 3 23 20 23 18 0 31-9 36-27l28-97h83l-40 138h-75l6-22c-19 19-43 28-72 28-64 0-91-23-80-62Z"/>
    <path d="m472 238 79-71-37-67h88l13 33 31-33h91l-80 69 39 69h-89l-14-35-34 35h-87Z"/>
    <path d="M669 194h78c-1 11 8 18 27 20 21 2 35-4 38-15 2-7-4-12-18-15l-46-10c-47-10-67-34-58-70 10-40 50-65 112-65 65 0 98 25 94 68h-78c0-11-9-17-27-18-17-1-28 4-31 14-2 7 4 12 19 15l46 10c48 11 68 34 59 69-11 43-52 67-119 67-70 0-103-25-96-70Z"/>
    <path d="m837 238 12-42-46-96h89l14 50 44-50h91l-110 108-9 30h-85Z"/>
  </g>
</svg>
